<svg xmlns="http://www.w3.org/2000/svg" width="128" height="128" viewBox="0 0 128 128">
          <rect x="12.8" y="12.8" width="102.4" height="102.4" rx="22.528000000000002" fill="#23232b" />
          <rect x="33.28" y="33.28" width="7.777142857142858" height="7.777142857142858" rx="2" fill="hsl(174, 42%, 40%)" /><rect x="85.94285714285715" y="33.28" width="7.777142857142858" height="7.777142857142858" rx="2" fill="hsl(174, 42%, 40%)" /><rect x="33.28" y="42.05714285714286" width="7.777142857142858" height="7.777142857142858" rx="2" fill="hsl(174, 42%, 40%)" /><rect x="42.05714285714286" y="42.05714285714286" width="7.777142857142858" height="7.777142857142858" rx="2" fill="hsl(174, 42%, 40%)" /><rect x="85.94285714285715" y="42.05714285714286" width="7.777142857142858" height="7.777142857142858" rx="2" fill="hsl(174, 42%, 40%)" /><rect x="33.28" y="50.83428571428571" width="7.777142857142858" height="7.777142857142858" rx="2" fill="hsl(174, 42%, 40%)" /><rect x="50.83428571428571" y="50.83428571428571" width="7.777142857142858" height="7.777142857142858" rx="2" fill="hsl(174, 42%, 40%)" /><rect x="85.94285714285715" y="50.83428571428571" width="7.777142857142858" height="7.777142857142858" rx="2" fill="hsl(174, 42%, 40%)" /><rect x="33.28" y="59.611428571428576" width="7.777142857142858" height="7.777142857142858" rx="2" fill="hsl(174, 42%, 40%)" /><rect x="59.611428571428576" y="59.611428571428576" width="7.777142857142858" height="7.777142857142858" rx="2" fill="hsl(174, 42%, 40%)" /><rect x="85.94285714285715" y="59.611428571428576" width="7.777142857142858" height="7.777142857142858" rx="2" fill="hsl(174, 42%, 40%)" /><rect x="33.28" y="68.38857142857142" width="7.777142857142858" height="7.777142857142858" rx="2" fill="hsl(174, 42%, 40%)" /><rect x="68.38857142857142" y="68.38857142857142" width="7.777142857142858" height="7.777142857142858" rx="2" fill="hsl(174, 42%, 40%)" /><rect x="85.94285714285715" y="68.38857142857142" width="7.777142857142858" height="7.777142857142858" rx="2" fill="hsl(174, 42%, 40%)" /><rect x="33.28" y="77.16571428571429" width="7.777142857142858" height="7.777142857142858" rx="2" fill="hsl(174, 42%, 40%)" /><rect x="77.16571428571429" y="77.16571428571429" width="7.777142857142858" height="7.777142857142858" rx="2" fill="hsl(174, 42%, 40%)" /><rect x="85.94285714285715" y="77.16571428571429" width="7.777142857142858" height="7.777142857142858" rx="2" fill="hsl(174, 42%, 40%)" /><rect x="33.28" y="85.94285714285715" width="7.777142857142858" height="7.777142857142858" rx="2" fill="hsl(174, 42%, 40%)" /><rect x="85.94285714285715" y="85.94285714285715" width="7.777142857142858" height="7.777142857142858" rx="2" fill="hsl(174, 42%, 40%)" />
        </svg>